<?xml version="1.0" encoding="UTF-8" standalone="no"?>
<!-- Created with Inkscape (http://www.inkscape.org/) -->

<svg
   width="3.7166748mm"
   height="4.0925732mm"
   viewBox="0 0 3.7166748 4.0925732"
   version="1.1"
   id="svg5"
   xmlns="http://www.w3.org/2000/svg"
   xmlns:svg="http://www.w3.org/2000/svg">
  <defs
     id="defs2" />
  <g
     id="layer1"
     transform="translate(-55.49975,-8.7138326)">
    <path
       d="m 58.243498,9.0060613 c 0.04572,-0.05071 0.100013,-0.09093 0.159755,-0.118367 0.05974,-0.02744 0.123773,-0.04157 0.188437,-0.04157 0.06469,0 0.128719,0.01412 0.188462,0.04157 0.05974,0.02744 0.114009,0.06766 0.159756,0.118367 0.04572,0.0507 0.08199,0.1109 0.106733,0.177149 0.02474,0.06625 0.03749,0.137255 0.03749,0.208963 0,0.07171 -0.01275,0.142711 -0.03749,0.20896 -0.02474,0.06625 -0.06101,0.126444 -0.106733,0.177149 l -2.350334,2.6062517 -0.95754,0.289586 0.261147,-1.061799 z"
       stroke="#53cbf1"
       stroke-linecap="round"
       stroke-linejoin="round"
       id="path1360"
       style="stroke-width:0.264583" />
  </g>
</svg>
